G04 #@! TF.FileFunction,Drawing*
%FSLAX46Y46*%
G04 Gerber Fmt 4.6, Leading zero omitted, Abs format (unit mm)*
G04 Created by KiCad (PCBNEW (2015-02-24 BZR 5451)-product) date Thu 12 Mar 2015 11:25:46 PM EDT*
%MOMM*%
G01*
G04 APERTURE LIST*
%ADD10C,0.100000*%
%ADD11C,0.300000*%
%ADD12C,0.200000*%
G04 APERTURE END LIST*
D10*
D11*
X5471429Y-91178573D02*
X5471429Y-90321430D01*
X5471429Y-90750002D02*
X6971429Y-90750002D01*
X6757143Y-90607145D01*
X6614286Y-90464287D01*
X6542857Y-90321430D01*
X6971429Y-92107144D02*
X6971429Y-92250001D01*
X6900000Y-92392858D01*
X6828571Y-92464287D01*
X6685714Y-92535716D01*
X6400000Y-92607144D01*
X6042857Y-92607144D01*
X5757143Y-92535716D01*
X5614286Y-92464287D01*
X5542857Y-92392858D01*
X5471429Y-92250001D01*
X5471429Y-92107144D01*
X5542857Y-91964287D01*
X5614286Y-91892858D01*
X5757143Y-91821430D01*
X6042857Y-91750001D01*
X6400000Y-91750001D01*
X6685714Y-91821430D01*
X6828571Y-91892858D01*
X6900000Y-91964287D01*
X6971429Y-92107144D01*
X6971429Y-93535715D02*
X6971429Y-93678572D01*
X6900000Y-93821429D01*
X6828571Y-93892858D01*
X6685714Y-93964287D01*
X6400000Y-94035715D01*
X6042857Y-94035715D01*
X5757143Y-93964287D01*
X5614286Y-93892858D01*
X5542857Y-93821429D01*
X5471429Y-93678572D01*
X5471429Y-93535715D01*
X5542857Y-93392858D01*
X5614286Y-93321429D01*
X5757143Y-93250001D01*
X6042857Y-93178572D01*
X6400000Y-93178572D01*
X6685714Y-93250001D01*
X6828571Y-93321429D01*
X6900000Y-93392858D01*
X6971429Y-93535715D01*
X5614286Y-94678572D02*
X5542857Y-94750000D01*
X5471429Y-94678572D01*
X5542857Y-94607143D01*
X5614286Y-94678572D01*
X5471429Y-94678572D01*
X6971429Y-96107144D02*
X6971429Y-95392858D01*
X6257143Y-95321429D01*
X6328571Y-95392858D01*
X6400000Y-95535715D01*
X6400000Y-95892858D01*
X6328571Y-96035715D01*
X6257143Y-96107144D01*
X6114286Y-96178572D01*
X5757143Y-96178572D01*
X5614286Y-96107144D01*
X5542857Y-96035715D01*
X5471429Y-95892858D01*
X5471429Y-95535715D01*
X5542857Y-95392858D01*
X5614286Y-95321429D01*
X6971429Y-97107143D02*
X6971429Y-97250000D01*
X6900000Y-97392857D01*
X6828571Y-97464286D01*
X6685714Y-97535715D01*
X6400000Y-97607143D01*
X6042857Y-97607143D01*
X5757143Y-97535715D01*
X5614286Y-97464286D01*
X5542857Y-97392857D01*
X5471429Y-97250000D01*
X5471429Y-97107143D01*
X5542857Y-96964286D01*
X5614286Y-96892857D01*
X5757143Y-96821429D01*
X6042857Y-96750000D01*
X6400000Y-96750000D01*
X6685714Y-96821429D01*
X6828571Y-96892857D01*
X6900000Y-96964286D01*
X6971429Y-97107143D01*
X6971429Y-98535714D02*
X6971429Y-98678571D01*
X6900000Y-98821428D01*
X6828571Y-98892857D01*
X6685714Y-98964286D01*
X6400000Y-99035714D01*
X6042857Y-99035714D01*
X5757143Y-98964286D01*
X5614286Y-98892857D01*
X5542857Y-98821428D01*
X5471429Y-98678571D01*
X5471429Y-98535714D01*
X5542857Y-98392857D01*
X5614286Y-98321428D01*
X5757143Y-98250000D01*
X6042857Y-98178571D01*
X6400000Y-98178571D01*
X6685714Y-98250000D01*
X6828571Y-98321428D01*
X6900000Y-98392857D01*
X6971429Y-98535714D01*
X5471429Y-100821428D02*
X6471429Y-100821428D01*
X6328571Y-100821428D02*
X6400000Y-100892856D01*
X6471429Y-101035714D01*
X6471429Y-101249999D01*
X6400000Y-101392856D01*
X6257143Y-101464285D01*
X5471429Y-101464285D01*
X6257143Y-101464285D02*
X6400000Y-101535714D01*
X6471429Y-101678571D01*
X6471429Y-101892856D01*
X6400000Y-102035714D01*
X6257143Y-102107142D01*
X5471429Y-102107142D01*
X5471429Y-102821428D02*
X6471429Y-102821428D01*
X6328571Y-102821428D02*
X6400000Y-102892856D01*
X6471429Y-103035714D01*
X6471429Y-103249999D01*
X6400000Y-103392856D01*
X6257143Y-103464285D01*
X5471429Y-103464285D01*
X6257143Y-103464285D02*
X6400000Y-103535714D01*
X6471429Y-103678571D01*
X6471429Y-103892856D01*
X6400000Y-104035714D01*
X6257143Y-104107142D01*
X5471429Y-104107142D01*
X7500000Y-47000000D02*
X7500000Y-147500000D01*
X113500000Y-47000000D02*
X4800000Y-47000000D01*
X113500000Y-147500000D02*
X4800000Y-147500000D01*
X7500000Y-147500000D02*
X6913579Y-146373496D01*
X7500000Y-147500000D02*
X8086421Y-146373496D01*
X7500000Y-47000000D02*
X6913579Y-48126504D01*
X7500000Y-47000000D02*
X8086421Y-48126504D01*
X145071430Y-33971430D02*
X145142859Y-33900001D01*
X145285716Y-33828572D01*
X145642859Y-33828572D01*
X145785716Y-33900001D01*
X145857145Y-33971430D01*
X145928573Y-34114287D01*
X145928573Y-34257144D01*
X145857145Y-34471430D01*
X145000002Y-35328572D01*
X145928573Y-35328572D01*
X147214287Y-33828572D02*
X146928573Y-33828572D01*
X146785716Y-33900001D01*
X146714287Y-33971430D01*
X146571430Y-34185715D01*
X146500001Y-34471430D01*
X146500001Y-35042858D01*
X146571430Y-35185715D01*
X146642858Y-35257144D01*
X146785716Y-35328572D01*
X147071430Y-35328572D01*
X147214287Y-35257144D01*
X147285716Y-35185715D01*
X147357144Y-35042858D01*
X147357144Y-34685715D01*
X147285716Y-34542858D01*
X147214287Y-34471430D01*
X147071430Y-34400001D01*
X146785716Y-34400001D01*
X146642858Y-34471430D01*
X146571430Y-34542858D01*
X146500001Y-34685715D01*
X147928572Y-33971430D02*
X148000001Y-33900001D01*
X148142858Y-33828572D01*
X148500001Y-33828572D01*
X148642858Y-33900001D01*
X148714287Y-33971430D01*
X148785715Y-34114287D01*
X148785715Y-34257144D01*
X148714287Y-34471430D01*
X147857144Y-35328572D01*
X148785715Y-35328572D01*
X149428572Y-35185715D02*
X149500000Y-35257144D01*
X149428572Y-35328572D01*
X149357143Y-35257144D01*
X149428572Y-35185715D01*
X149428572Y-35328572D01*
X150428572Y-33828572D02*
X150571429Y-33828572D01*
X150714286Y-33900001D01*
X150785715Y-33971430D01*
X150857144Y-34114287D01*
X150928572Y-34400001D01*
X150928572Y-34757144D01*
X150857144Y-35042858D01*
X150785715Y-35185715D01*
X150714286Y-35257144D01*
X150571429Y-35328572D01*
X150428572Y-35328572D01*
X150285715Y-35257144D01*
X150214286Y-35185715D01*
X150142858Y-35042858D01*
X150071429Y-34757144D01*
X150071429Y-34400001D01*
X150142858Y-34114287D01*
X150214286Y-33971430D01*
X150285715Y-33900001D01*
X150428572Y-33828572D01*
X151857143Y-33828572D02*
X152000000Y-33828572D01*
X152142857Y-33900001D01*
X152214286Y-33971430D01*
X152285715Y-34114287D01*
X152357143Y-34400001D01*
X152357143Y-34757144D01*
X152285715Y-35042858D01*
X152214286Y-35185715D01*
X152142857Y-35257144D01*
X152000000Y-35328572D01*
X151857143Y-35328572D01*
X151714286Y-35257144D01*
X151642857Y-35185715D01*
X151571429Y-35042858D01*
X151500000Y-34757144D01*
X151500000Y-34400001D01*
X151571429Y-34114287D01*
X151642857Y-33971430D01*
X151714286Y-33900001D01*
X151857143Y-33828572D01*
X153285714Y-33828572D02*
X153428571Y-33828572D01*
X153571428Y-33900001D01*
X153642857Y-33971430D01*
X153714286Y-34114287D01*
X153785714Y-34400001D01*
X153785714Y-34757144D01*
X153714286Y-35042858D01*
X153642857Y-35185715D01*
X153571428Y-35257144D01*
X153428571Y-35328572D01*
X153285714Y-35328572D01*
X153142857Y-35257144D01*
X153071428Y-35185715D01*
X153000000Y-35042858D01*
X152928571Y-34757144D01*
X152928571Y-34400001D01*
X153000000Y-34114287D01*
X153071428Y-33971430D01*
X153142857Y-33900001D01*
X153285714Y-33828572D01*
X155571428Y-35328572D02*
X155571428Y-34328572D01*
X155571428Y-34471430D02*
X155642856Y-34400001D01*
X155785714Y-34328572D01*
X155999999Y-34328572D01*
X156142856Y-34400001D01*
X156214285Y-34542858D01*
X156214285Y-35328572D01*
X156214285Y-34542858D02*
X156285714Y-34400001D01*
X156428571Y-34328572D01*
X156642856Y-34328572D01*
X156785714Y-34400001D01*
X156857142Y-34542858D01*
X156857142Y-35328572D01*
X157571428Y-35328572D02*
X157571428Y-34328572D01*
X157571428Y-34471430D02*
X157642856Y-34400001D01*
X157785714Y-34328572D01*
X157999999Y-34328572D01*
X158142856Y-34400001D01*
X158214285Y-34542858D01*
X158214285Y-35328572D01*
X158214285Y-34542858D02*
X158285714Y-34400001D01*
X158428571Y-34328572D01*
X158642856Y-34328572D01*
X158785714Y-34400001D01*
X158857142Y-34542858D01*
X158857142Y-35328572D01*
X283000000Y-36000001D02*
X21000000Y-36000001D01*
X283000000Y-62500000D02*
X283000000Y-33300001D01*
X21000000Y-62500000D02*
X21000000Y-33300001D01*
X21000000Y-36000001D02*
X22126504Y-35413580D01*
X21000000Y-36000001D02*
X22126504Y-36586422D01*
X283000000Y-36000001D02*
X281873496Y-35413580D01*
X283000000Y-36000001D02*
X281873496Y-36586422D01*
D12*
X135400000Y-105900000D02*
X133850000Y-105900000D01*
X135400000Y-103000000D02*
X133850000Y-103000000D01*
X122500000Y-105900000D02*
X123625000Y-105900000D01*
X122500000Y-103000000D02*
X124050000Y-103000000D01*
X133850000Y-107450000D02*
X133850000Y-101450000D01*
X124050000Y-101450000D02*
X124050000Y-107450000D01*
X124050000Y-107450000D02*
X133850000Y-107450000D01*
X124050000Y-101450000D02*
X133850000Y-101450000D01*
X167950000Y-105850000D02*
X166400000Y-105850000D01*
X167950000Y-102950000D02*
X166400000Y-102950000D01*
X155050000Y-105850000D02*
X156175000Y-105850000D01*
X155050000Y-102950000D02*
X156600000Y-102950000D01*
X166400000Y-107400000D02*
X166400000Y-101400000D01*
X156600000Y-101400000D02*
X156600000Y-107400000D01*
X156600000Y-107400000D02*
X166400000Y-107400000D01*
X156600000Y-101400000D02*
X166400000Y-101400000D01*
X200400000Y-105900000D02*
X198850000Y-105900000D01*
X200400000Y-103000000D02*
X198850000Y-103000000D01*
X187500000Y-105900000D02*
X188625000Y-105900000D01*
X187500000Y-103000000D02*
X189050000Y-103000000D01*
X198850000Y-107450000D02*
X198850000Y-101450000D01*
X189050000Y-101450000D02*
X189050000Y-107450000D01*
X189050000Y-107450000D02*
X198850000Y-107450000D01*
X189050000Y-101450000D02*
X198850000Y-101450000D01*
X232900000Y-105900000D02*
X231350000Y-105900000D01*
X232900000Y-103000000D02*
X231350000Y-103000000D01*
X220000000Y-105900000D02*
X221125000Y-105900000D01*
X220000000Y-103000000D02*
X221550000Y-103000000D01*
X231350000Y-107450000D02*
X231350000Y-101450000D01*
X221550000Y-101450000D02*
X221550000Y-107450000D01*
X221550000Y-107450000D02*
X231350000Y-107450000D01*
X221550000Y-101450000D02*
X231350000Y-101450000D01*
M02*
