M48
;DRILL file {kicad (2015-02-24 BZR 5451)-product} date Thu 12 Mar 2015 11:25:49 PM EDT
;FORMAT={-:-/ absolute / inch / decimal}
FMAT,2
INCH,TZ
T1C0.025
T2C0.031
T3C0.032
T4C0.039
T5C0.039
T6C0.040
T7C0.051
T8C0.118
%
G90
G05
M72
T1
X1.9803Y-3.6417
X2.0236Y-3.5787
X2.0315Y-4.1378
X2.0827Y-3.4528
X2.1496Y-5.3071
X2.2008Y-4.0359
X2.2047Y-3.6929
X2.2087Y-3.9646
X2.2205Y-3.5079
X2.2244Y-3.6024
X2.2795Y-4.0276
X2.3071Y-3.8898
X2.3346Y-3.2598
X2.3465Y-3.8189
X2.3819Y-3.6969
X2.3819Y-3.9291
X2.3858Y-4.0551
X2.3937Y-2.9173
X2.3937Y-3.5748
X2.4822Y-2.9073
X2.5433Y-5.1024
X2.5852Y-5.2405
X2.6122Y-2.8976
X2.6417Y-3.4055
X2.6929Y-2.9018
X2.7087Y-3.8543
X2.7126Y-3.5709
X2.7421Y-3.2224
X2.75Y-3.311
X2.7629Y-2.8821
X2.7629Y-3.4047
X2.7753Y-3.9261
X2.878Y-4.4843
X2.8976Y-4.3228
X2.8994Y-5.2333
X2.9006Y-4.2643
X2.9016Y-5.1417
X2.9094Y-3.1142
X2.9119Y-4.2229
X2.9353Y-3.3478
X2.9606Y-4.3307
X2.9995Y-4.2146
X3.0118Y-3.0138
X3.0236Y-3.815
X3.0335Y-3.2264
X3.0507Y-2.9368
X3.0606Y-3.0453
X3.1339Y-4.0433
X3.1929Y-3.9921
X3.2835Y-3.9843
X3.3248Y-3.622
X3.3425Y-4.
X3.3504Y-4.1102
X3.378Y-4.0551
X3.4055Y-4.126
X3.5394Y-5.3287
X3.5413Y-5.4272
X3.6693Y-2.7756
X3.7087Y-3.4606
X3.7087Y-3.7323
X3.7323Y-5.689
X3.7913Y-5.3327
X3.8346Y-4.937
X3.9606Y-3.4528
X3.9685Y-3.5591
X4.0709Y-4.8386
X4.0846Y-3.4035
X4.0945Y-3.7165
X4.1339Y-3.3642
X4.1988Y-5.0433
X4.2126Y-3.6772
X4.2756Y-4.2126
X4.2953Y-4.4252
X4.3543Y-4.0591
X4.3701Y-3.8583
X4.374Y-3.7283
X4.378Y-4.2165
X4.378Y-4.8799
X4.3858Y-2.9213
X4.3937Y-3.5945
X4.4094Y-3.4213
X4.4488Y-4.624
X4.4744Y-5.0177
X4.4961Y-4.0531
X4.4961Y-4.126
X4.498Y-3.748
X4.498Y-3.8248
X4.498Y-3.8957
X4.498Y-3.9764
X4.5844Y-3.571
X4.5866Y-4.7854
X4.6309Y-3.3231
X4.6367Y-3.6401
X4.6417Y-3.077
X4.656Y-2.8983
X4.6657Y-3.5378
X4.7087Y-3.626
X4.7487Y-3.2496
X4.7953Y-3.4646
X4.7966Y-2.7865
X4.8346Y-2.7362
X4.842Y-2.8303
X4.8465Y-3.3504
X4.8543Y-3.1772
X4.8806Y-2.9676
X4.886Y-2.8787
X4.9094Y-3.185
X4.9146Y-2.8466
X4.9213Y-3.5591
X4.9213Y-3.685
X4.9252Y-3.7205
X4.9252Y-3.7559
X4.9409Y-3.5039
X4.9488Y-4.4685
X4.9488Y-4.5039
X4.9488Y-4.5394
X4.9488Y-4.6378
X4.9491Y-3.3782
X4.9587Y-2.8149
X4.9603Y-3.2146
X4.9813Y-4.5827
X4.9843Y-3.2598
X4.988Y-3.3987
X4.9961Y-4.8661
X5.0013Y-3.0032
X5.0065Y-4.6437
X5.0241Y-3.1864
X5.0317Y-3.5827
X5.0389Y-4.6718
X5.0405Y-3.3219
X5.0472Y-3.6457
X5.0476Y-3.0853
X5.0586Y-4.8504
X5.0591Y-3.4488
X5.0591Y-4.9213
X5.061Y-5.
X5.0748Y-4.6339
X5.0866Y-3.1929
X5.096Y-3.5785
X5.1045Y-3.1082
X5.1102Y-3.689
X5.1114Y-3.0259
X5.1378Y-3.314
X5.1417Y-3.4488
X5.1559Y-3.132
X5.1732Y-4.7362
X5.1772Y-3.2362
X5.189Y-3.0512
X5.2047Y-3.685
X5.2047Y-3.7205
X5.2047Y-3.7559
X5.2283Y-4.4646
X5.2283Y-4.5
X5.2283Y-4.5354
X5.2283Y-4.6496
X5.2423Y-3.1269
X5.2677Y-3.4488
X5.2874Y-3.3583
X5.2935Y-3.1809
X5.3225Y-2.3537
X5.3622Y-2.4055
X5.3636Y-3.6065
X5.3661Y-2.5197
X5.3671Y-3.0746
X5.3686Y-3.1174
X5.3701Y-2.3406
X5.3701Y-2.5866
X5.372Y-4.9035
X5.374Y-5.061
X5.376Y-4.5906
X5.376Y-4.6752
X5.376Y-4.7677
X5.3844Y-3.2594
X5.3976Y-3.1575
X5.4134Y-3.5906
X5.4173Y-5.6142
X5.4722Y-3.389
X5.4827Y-3.3281
X5.4882Y-5.7244
X5.4946Y-3.2869
X5.4961Y-3.4727
X5.4978Y-2.0244
X5.4978Y-2.0558
X5.5079Y-3.624
X5.5689Y-2.4882
X5.5709Y-2.5591
X5.5748Y-2.3858
X5.5965Y-5.3406
X5.6174Y-5.
X5.626Y-2.2795
X5.6299Y-2.6577
X5.6299Y-4.6772
X5.6339Y-2.4843
X5.6378Y-4.815
X5.6533Y-1.9821
X5.7362Y-5.7047
X5.7638Y-2.5197
X5.7638Y-3.1614
X5.7854Y-3.7874
X5.7854Y-3.8645
X5.7854Y-3.9289
X5.7854Y-4.1752
X5.7854Y-4.2756
X5.7854Y-4.4764
X5.7874Y-4.0059
X5.7874Y-4.0906
X5.7953Y-4.6457
X5.8039Y-5.
X5.8071Y-5.3425
X5.811Y-4.8307
X5.8268Y-5.5512
X5.8701Y-2.5197
X5.913Y-2.0293
X5.9213Y-3.1457
X5.9409Y-2.0551
X5.9409Y-2.1575
X5.952Y-3.2207
X5.9606Y-5.5591
X5.9646Y-2.374
X5.9646Y-2.4843
X5.9646Y-2.5748
X5.9685Y-3.3622
X5.9685Y-5.6969
X6.0549Y-3.376
X6.0669Y-2.374
X6.0709Y-2.4843
X6.0748Y-2.5748
X6.0748Y-3.4646
X6.0797Y-3.2808
X6.1193Y-3.3584
X6.1339Y-3.2205
X6.1772Y-2.5394
X6.2008Y-3.5591
X6.2008Y-3.685
X6.2047Y-3.7205
X6.2047Y-3.7559
X6.2205Y-3.5039
X6.2283Y-4.4685
X6.2283Y-4.5039
X6.2283Y-4.5394
X6.2283Y-4.6378
X6.2402Y-3.3898
X6.2559Y-3.1457
X6.2608Y-4.5827
X6.2677Y-4.8622
X6.2717Y-2.5315
X6.2756Y-2.378
X6.286Y-4.6437
X6.3112Y-3.5827
X6.3148Y-3.3303
X6.3184Y-4.6718
X6.3268Y-3.6457
X6.3289Y-3.1455
X6.337Y-4.8518
X6.3386Y-3.4488
X6.3543Y-4.6339
X6.3567Y-4.1124
X6.3583Y-4.998
X6.3756Y-3.5785
X6.3898Y-3.689
X6.3937Y-3.1102
X6.3937Y-4.8898
X6.4055Y-2.6319
X6.4204Y-3.3496
X6.4213Y-3.4488
X6.4252Y-2.3839
X6.4272Y-2.5354
X6.4397Y-3.1887
X6.4528Y-4.7362
X6.4843Y-3.685
X6.4843Y-3.7205
X6.4843Y-3.7559
X6.4882Y-2.6339
X6.5079Y-4.4646
X6.5079Y-4.5
X6.5079Y-4.5354
X6.5079Y-4.6496
X6.5236Y-2.4705
X6.5256Y-2.5394
X6.5472Y-3.4488
X6.5669Y-3.3583
X6.6339Y-2.6201
X6.6457Y-2.4055
X6.6535Y-4.6732
X6.6535Y-4.8996
X6.6535Y-5.0551
X6.6555Y-4.5925
X6.6555Y-4.7736
X6.7165Y-5.6142
X6.7244Y-3.5984
X6.7835Y-3.4567
X6.8173Y-2.764
X6.8228Y-5.7205
X6.8402Y-2.6768
X6.8425Y-3.185
X6.8602Y-2.764
X6.8645Y-2.7207
X6.8917Y-5.3327
X6.8928Y-4.998
X6.8937Y-3.1573
X6.8957Y-2.2933
X6.9016Y-4.6181
X6.9016Y-4.7559
X6.9092Y-3.2148
X6.9173Y-4.8583
X6.9193Y-2.1339
X6.9291Y-2.5984
X6.9429Y-2.689
X7.0236Y-4.5433
X7.0244Y-2.7065
X7.0472Y-5.5827
X7.063Y-4.3898
X7.065Y-4.1496
X7.065Y-4.2598
X7.0669Y-3.813
X7.0669Y-3.8996
X7.0669Y-3.9724
X7.0669Y-4.0472
X7.0709Y-4.6417
X7.0787Y-4.8465
X7.0807Y-5.3327
X7.0819Y-4.998
X7.0982Y-2.7837
X7.1411Y-2.7837
X7.2677Y-5.7244
X7.2756Y-5.5945
X7.3543Y-3.4646
X7.3661Y-2.6654
X7.4055Y-3.3504
X7.4803Y-3.5591
X7.4803Y-3.685
X7.4843Y-3.2598
X7.4843Y-3.7205
X7.4843Y-3.7559
X7.5Y-3.5039
X7.5079Y-4.4685
X7.5079Y-4.5039
X7.5079Y-4.5394
X7.5079Y-4.6378
X7.5197Y-3.3898
X7.5403Y-4.5827
X7.5571Y-2.5236
X7.5571Y-2.6594
X7.5656Y-4.6437
X7.5748Y-4.8819
X7.5908Y-3.5827
X7.5979Y-4.6718
X7.5984Y-3.2835
X7.6063Y-3.6457
X7.6181Y-3.4488
X7.6205Y-4.8371
X7.6339Y-4.6339
X7.6362Y-4.1124
X7.6476Y-4.998
X7.6496Y-4.8937
X7.6535Y-2.437
X7.6551Y-3.5785
X7.6693Y-3.689
X7.7008Y-3.4488
X7.7047Y-3.2953
X7.7323Y-4.7362
X7.7638Y-3.685
X7.7638Y-3.7205
X7.7638Y-3.7559
X7.7874Y-4.4646
X7.7874Y-4.5
X7.7874Y-4.5354
X7.7874Y-4.6496
X7.8268Y-3.4488
X7.8465Y-3.3583
X7.8701Y-3.2874
X7.872Y-2.4488
X7.9094Y-2.9173
X7.9311Y-4.5827
X7.9331Y-4.6732
X7.9331Y-4.7579
X7.9331Y-5.061
X7.935Y-4.8543
X7.9606Y-5.6142
X8.0315Y-3.0273
X8.061Y-2.4528
X8.1496Y-5.7205
X8.1732Y-5.3189
X8.1753Y-4.998
X8.1772Y-4.6142
X8.1772Y-4.7165
X8.1772Y-4.815
X8.2244Y-2.9764
X8.2579Y-2.4547
X8.2835Y-3.0118
X8.2913Y-5.5551
X8.2933Y-2.9055
X8.315Y-4.4528
X8.3307Y-2.6417
X8.3366Y-2.9427
X8.3526Y-2.9939
X8.378Y-4.5748
X8.378Y-4.6969
X8.3937Y-4.8268
X8.3981Y-4.998
X8.4016Y-5.3189
X8.4469Y-2.3445
X8.4484Y-2.9318
X8.4508Y-2.5315
X8.5157Y-5.7283
X8.5197Y-3.4213
X8.5276Y-5.5709
X8.5606Y-2.9392
X8.563Y-3.3701
X8.6024Y-3.2874
X8.6142Y-2.6339
X8.626Y-2.3366
X8.6339Y-3.4646
X8.6813Y-3.3494
X8.752Y-3.3031
X8.7598Y-3.5591
X8.7598Y-3.685
X8.7638Y-3.7205
X8.7638Y-3.7559
X8.7795Y-3.5039
X8.7874Y-4.4685
X8.7874Y-4.5039
X8.7874Y-4.5394
X8.7874Y-4.6378
X8.7992Y-2.5197
X8.7992Y-3.3898
X8.8199Y-4.5827
X8.8346Y-2.7382
X8.8366Y-2.376
X8.8451Y-4.6437
X8.8701Y-4.8504
X8.8703Y-3.5827
X8.8774Y-4.6718
X8.878Y-3.2835
X8.8895Y-3.6457
X8.8976Y-3.4488
X8.9134Y-4.6339
X8.9157Y-4.1124
X8.9213Y-2.374
X8.9346Y-3.5785
X8.9469Y-2.9055
X8.9488Y-3.689
X8.9803Y-3.4488
X8.9843Y-3.2953
X9.0039Y-5.002
X9.0118Y-4.7362
X9.0354Y-2.5551
X9.0433Y-3.685
X9.0433Y-3.7205
X9.0433Y-3.7559
X9.0669Y-4.4646
X9.0669Y-4.5
X9.0669Y-4.5354
X9.0669Y-4.6496
X9.1063Y-3.4449
X9.1193Y-3.3649
X9.2106Y-4.7618
X9.2106Y-5.0591
X9.2126Y-4.561
X9.2126Y-4.6516
X9.2126Y-4.8484
X9.2303Y-2.7717
X9.3307Y-2.5748
X9.3661Y-2.3543
X9.3681Y-5.4429
X9.374Y-5.2205
X9.378Y-2.4606
X9.3819Y-2.5551
X9.3917Y-2.8071
X9.4016Y-2.6732
X9.4409Y-2.4764
X9.4409Y-4.6732
X9.4409Y-4.7756
X9.4744Y-5.4508
X9.4941Y-3.0846
X9.4961Y-4.6181
X9.4961Y-5.3366
X9.5039Y-4.7323
X9.5079Y-4.8268
X9.5197Y-5.0315
X9.5236Y-5.2264
X9.5394Y-5.1378
X9.5512Y-2.813
X9.5591Y-5.0748
X9.5827Y-3.9941
X9.6063Y-4.063
X9.626Y-5.4488
X9.6299Y-3.6831
X9.6358Y-5.1122
X9.6378Y-4.1378
X9.6417Y-3.4409
X9.6417Y-5.311
X9.6476Y-2.9665
X9.685Y-4.3268
X9.7283Y-5.0098
X9.7283Y-5.0748
X9.748Y-4.5354
X9.7557Y-3.382
X9.7815Y-4.2362
X9.8189Y-5.0571
X9.8701Y-4.0315
X9.878Y-3.9646
X9.8898Y-4.1102
X9.9094Y-4.252
X9.9134Y-3.9331
X9.9134Y-4.
X9.9635Y-3.7069
X10.0421Y-3.7127
X10.0433Y-2.811
X10.0433Y-3.126
X10.0433Y-3.4213
X10.0531Y-4.2815
X10.0827Y-3.7362
X10.1024Y-2.5551
X10.1024Y-2.8504
X10.1024Y-3.1457
X10.1024Y-3.4409
X10.122Y-3.6969
X10.1417Y-3.3228
X10.1614Y-2.7323
X10.1614Y-3.0276
X10.2205Y-4.0118
X10.2205Y-4.0709
X10.2241Y-4.1263
X10.2697Y-3.9902
X10.2756Y-4.8425
X10.3091Y-4.7362
X10.3583Y-4.2283
X10.3583Y-4.622
X10.3701Y-5.1024
X10.374Y-4.8976
X10.378Y-4.4252
X10.4055Y-3.9882
X10.4528Y-4.7756
X10.4685Y-5.0276
X10.5315Y-5.1417
X10.5551Y-3.9882
X10.561Y-4.1654
X10.561Y-4.3839
X10.563Y-4.5886
T2
X3.5591Y-2.7441
X5.0771Y-4.1124
X5.6299Y-3.5866
X5.8268Y-3.5866
X6.4685Y-2.189
X6.9094Y-3.5866
X7.1063Y-3.5866
X8.189Y-3.5866
X8.3858Y-3.5866
X9.4528Y-3.5984
X9.6496Y-3.5984
X10.1376Y-4.2038
T3
X7.0748Y-2.4512
X7.0748Y-2.5512
X7.0748Y-2.6512
T4
X1.3713Y-5.0717
X1.3713Y-5.1717
X1.3713Y-5.2717
X1.3713Y-5.3717
X1.3713Y-5.4717
X1.4713Y-5.0717
X1.4713Y-5.1717
X1.4713Y-5.2717
X1.4713Y-5.3717
X1.4713Y-5.4717
X2.0657Y-5.5169
X2.0657Y-5.6169
X2.1657Y-5.5169
X2.1657Y-5.6169
X2.2657Y-5.5169
X2.2657Y-5.6169
X2.3657Y-5.5169
X2.3657Y-5.6169
X2.4657Y-5.5169
X2.4657Y-5.6169
X2.5657Y-5.5169
X2.5657Y-5.6169
X2.6657Y-5.5169
X2.6657Y-5.6169
X2.7657Y-5.5169
X2.7657Y-5.6169
X2.8657Y-5.5169
X2.8657Y-5.6169
X2.9657Y-5.5169
X2.9657Y-5.6169
X3.0657Y-5.5169
X3.0657Y-5.6169
X3.1657Y-5.5169
X3.1657Y-5.6169
X3.2657Y-5.5169
X3.2657Y-5.6169
X3.3657Y-5.5169
X3.3657Y-5.6169
X3.4657Y-5.5169
X3.4657Y-5.6169
X3.5657Y-5.5169
X3.5657Y-5.6169
X3.6657Y-5.5169
X3.6657Y-5.6169
X3.7657Y-5.5169
X3.7657Y-5.6169
X3.8657Y-5.5169
X3.8657Y-5.6169
X3.9657Y-5.5169
X3.9657Y-5.6169
X4.8406Y-4.0335
X4.8406Y-4.1122
X4.8406Y-4.1909
X4.9193Y-4.0335
X4.9193Y-4.1122
X4.9193Y-4.1909
X4.998Y-4.0335
X4.998Y-4.1122
X4.998Y-4.1909
X5.0768Y-4.0335
X5.0768Y-4.1122
X5.0768Y-4.1909
X5.1555Y-4.0335
X5.1555Y-4.1122
X5.1555Y-4.1909
X5.2343Y-4.0335
X5.2343Y-4.1122
X5.2343Y-4.1909
X5.313Y-4.0335
X5.313Y-4.1122
X5.313Y-4.1909
X6.122Y-4.0315
X6.122Y-4.1102
X6.122Y-4.189
X6.2008Y-4.0315
X6.2008Y-4.1102
X6.2008Y-4.189
X6.2795Y-4.0315
X6.2795Y-4.1102
X6.2795Y-4.189
X6.3583Y-4.0315
X6.3583Y-4.1102
X6.3583Y-4.189
X6.437Y-4.0315
X6.437Y-4.1102
X6.437Y-4.189
X6.5157Y-4.0315
X6.5157Y-4.1102
X6.5157Y-4.189
X6.5945Y-4.0315
X6.5945Y-4.1102
X6.5945Y-4.189
X7.3996Y-4.0335
X7.3996Y-4.1122
X7.3996Y-4.1909
X7.4783Y-4.0335
X7.4783Y-4.1122
X7.4783Y-4.1909
X7.5571Y-4.0335
X7.5571Y-4.1122
X7.5571Y-4.1909
X7.6358Y-4.0335
X7.6358Y-4.1122
X7.6358Y-4.1909
X7.7146Y-4.0335
X7.7146Y-4.1122
X7.7146Y-4.1909
X7.7933Y-4.0335
X7.7933Y-4.1122
X7.7933Y-4.1909
X7.872Y-4.0335
X7.872Y-4.1122
X7.872Y-4.1909
X8.6791Y-4.0335
X8.6791Y-4.1122
X8.6791Y-4.1909
X8.7579Y-4.0335
X8.7579Y-4.1122
X8.7579Y-4.1909
X8.8366Y-4.0335
X8.8366Y-4.1122
X8.8366Y-4.1909
X8.9154Y-4.0335
X8.9154Y-4.1122
X8.9154Y-4.1909
X8.9941Y-4.0335
X8.9941Y-4.1122
X8.9941Y-4.1909
X9.0728Y-4.0335
X9.0728Y-4.1122
X9.0728Y-4.1909
X9.1516Y-4.0335
X9.1516Y-4.1122
X9.1516Y-4.1909
T5
X2.315Y-5.0169
X2.315Y-5.1169
X5.2295Y-1.9646
X5.3295Y-1.9646
X7.4055Y-1.9311
X7.4055Y-2.0311
X7.4055Y-2.1311
X7.4055Y-2.2311
X7.4055Y-2.3311
X7.4055Y-2.4311
X9.8858Y-4.3902
X9.8858Y-4.4902
X9.8858Y-4.5902
X9.8858Y-4.6902
X9.8858Y-4.7902
X9.8858Y-4.8902
X9.8858Y-4.9902
X9.8858Y-5.0902
X10.1024Y-4.3902
X10.1024Y-4.4902
X10.1024Y-4.5902
X10.1024Y-4.6902
X10.1024Y-4.7902
X10.1024Y-4.8902
X10.1024Y-4.9902
X10.1024Y-5.0902
T6
X4.8957Y-5.7122
X5.0138Y-5.5571
X5.0138Y-5.6752
X5.1319Y-5.5571
X5.1319Y-5.6752
X5.25Y-5.7122
X6.1752Y-5.7122
X6.2933Y-5.5571
X6.2933Y-5.6752
X6.4114Y-5.5571
X6.4114Y-5.6752
X6.5295Y-5.7122
X7.4547Y-5.7122
X7.5728Y-5.5571
X7.5728Y-5.6752
X7.6909Y-5.5571
X7.6909Y-5.6752
X7.8091Y-5.7122
X8.7343Y-5.7122
X8.8524Y-5.5571
X8.8524Y-5.6752
X8.9705Y-5.5571
X8.9705Y-5.6752
X9.0886Y-5.7122
T7
X4.7776Y-5.252
X4.8268Y-2.1024
X4.9744Y-5.252
X5.0236Y-2.1024
X5.1713Y-5.252
X5.3681Y-5.252
X6.0571Y-5.252
X6.2539Y-5.252
X6.4508Y-5.252
X6.6476Y-5.252
X7.3366Y-5.252
X7.5335Y-5.252
X7.7008Y-2.0827
X7.7303Y-5.252
X7.8976Y-2.0827
X7.9272Y-5.252
X8.0945Y-2.0827
X8.2913Y-2.0827
X8.4882Y-2.0827
X8.6161Y-5.252
X8.685Y-2.0827
X8.813Y-5.252
X9.0098Y-5.252
X9.0591Y-2.0827
X9.2067Y-5.252
X9.2559Y-2.0827
X10.9291Y-2.5945
X10.9291Y-2.7913
X10.9291Y-2.9882
X10.9291Y-3.185
X10.9291Y-3.3819
X10.9291Y-3.5787
X10.9291Y-4.0906
X10.9291Y-4.2874
X10.9291Y-4.4843
X10.9291Y-4.6811
X10.9291Y-4.878
X10.9291Y-5.0748
T8
X1.0079Y-5.6457
X1.874Y-2.6929
X1.874Y-4.622
X4.1575Y-2.6929
X4.1575Y-4.622
X4.4331Y-5.6457
X4.5118Y-2.0236
X7.0709Y-2.0236
X9.5906Y-2.0236
X9.5906Y-5.6457
T0
M30
